<?xml version="1.0" encoding="utf-8"?>
<!-- Generator: Adobe Illustrator 19.0.0, SVG Export Plug-In . SVG Version: 6.00 Build 0)  -->
<svg version="1.1" xmlns="http://www.w3.org/2000/svg" xmlns:xlink="http://www.w3.org/1999/xlink" x="0px" y="0px"
	 viewBox="0 0 300 80" style="enable-background:new 0 0 300 80;" xml:space="preserve">
<style type="text/css">
	.st0{display:none;}
	.st1{fill:#EC1C24;}
</style>
	<g id="XMLID_5_">
		<g fill="#fff">
			<path d="M67.1,28.1L66.9,29c-0.5,3.4-1.1,6.5-5.4,8.9c-4.3,2.3-9,2.3-14,2.3c-11.7,0-20.2-0.4-18.4-11.8l1.3-8.1 C32,10,39.9,8.5,52.5,8.5c11.8,0,17.2,0.9,16,10.2l-0.2,1.2H56.5l0.2-1.2c0-2.8-2.6-3-6.5-3c-6.6,0-7.4,1.5-8.1,5.9l-0.8,4.9 c-0.7,4.7-0.7,6.5,6.2,6.5c4.8,0,7.1-0.3,7.7-3.9l0.1-0.9H67.1z"/>
			<path id="XMLID_63_" d="M81.4,34.6l-3,5.4h-12L84.3,8.7h17.5l8.2,31.2H98.2l-1.4-5.4H81.4z M92.2,15h-0.1l-7.4,13.5h10.7L92.2,15 z"/>
			<path id="XMLID_66_" d="M125.2,32.7h18l-1.1,7.2h-29.5l4.9-31.2H129L125.2,32.7z"/>
			<path id="XMLID_68_" d="M157.9,39.9h-11.5l4.9-31.2h11.5L157.9,39.9z"/>
			<path id="XMLID_70_" d="M169.4,8.7h21.8c12,0,16.8,3.2,15.5,12.1l-1,6.5c-1.3,8.5-5.8,12.6-17.8,12.6h-23.4L169.4,8.7z M177.1,32.7h10.1c4.3,0,6.1-2,6.6-5.3l1-6.5c0.6-4-1-4.9-5-4.9h-10.1L177.1,32.7z"/>
			<path id="XMLID_73_" d="M220.3,34.6l-3,5.4h-12l17.8-31.2h17.5l8.2,31.2h-11.7l-1.4-5.4H220.3z M231.2,15h-0.1l-7.4,13.5h10.7
				L231.2,15z"/>
			<path id="XMLID_76_" d="M256.1,8.7h21.8c12,0,16.8,3.2,15.5,12.1l-1,6.5c-1.3,8.5-5.8,12.6-17.8,12.6h-23.4L256.1,8.7z M263.8,32.7h10.1c4.3,0,6.1-2,6.6-5.3l1-6.5c0.6-4-1-4.9-5-4.9h-10.1L263.8,32.7z"/>
		</g>
		<g id="XMLID_4_">
			<path id="XMLID_33_" class="st1" d="M25.1,51.6h12.7c7,0,9.8,1.9,9,7.2l-0.6,3.9c-0.8,5.1-3.3,7.5-10.3,7.5H22.3L25.1,51.6z M29.6,66h5.8c2.5,0,3.5-1.2,3.8-3.2l0.6-3.9c0.4-2.4-0.6-2.9-2.9-2.9h-5.8L29.6,66z"/>
			<path id="XMLID_36_" class="st1" d="M56.8,59.1h10.7L67,62.6H56.3l-0.6,3.6h11.6l-0.6,4.1H48.5l2.8-18.6h18l-0.6,4.1H57.3 L56.8,59.1z"/>
			<path id="XMLID_38_" class="st1" d="M77.6,70.3h-6.7l2.8-18.6h10.6l3,11.7h0.2l6.3-11.7h10.8l-2.8,18.6h-6.7L98,56h-0.2 l-8.5,14.3h-5.8L79.3,56h-0.2L77.6,70.3z"/>
			<path id="XMLID_40_" class="st1" d="M106,63.6l0.8-5.3c0.9-5.7,5.8-6.8,12.6-6.8s11.4,1.1,10.5,6.8l-0.8,5.3 c-0.9,5.7-5.8,6.8-12.6,6.8S105.1,69.3,106,63.6z M122.3,63l0.6-4.2c0.4-2.8-0.8-3-4.2-3c-3.5,0-4.6,0.3-5.2,3l-0.6,4.2 c-0.3,2.8,0.8,3.1,4.2,3.1C120.6,66.1,121.9,65.8,122.3,63z"/>
			<path id="XMLID_43_" class="st1" d="M144.3,58.9c7.3,0.4,9.1,1.1,8.4,5.4c-0.5,3.1-0.8,6.1-11.8,6.1c-6.4,0-10.6-0.1-9.6-6.2h6.4 c-0.3,1.9,0.6,2.1,3.9,2.1c3.1,0,4.2-0.1,4.4-1.7c0.2-1.6-0.1-1.6-3.2-1.7l-1.5-0.1c-6.1-0.3-9.7-0.3-8.9-5.6 c0.8-5.3,4.9-5.7,11.4-5.7c5.5,0,10.1,0.1,9.3,5.2l-0.1,0.8h-6.4c0.3-1.9-0.8-1.9-3.4-1.9c-3.6,0-4,0.5-4.1,1.6 c-0.2,1.5,0.7,1.5,2.5,1.6L144.3,58.9z"/>
			<path id="XMLID_45_" class="st1" d="M166.1,70.3h-6.7l2.2-14.3h-6.4l0.7-4.3h19.8L175,56h-6.7L166.1,70.3z"/>
			<path id="XMLID_47_" class="st1" d="M177.5,51.6h12.9c5.7,0.1,8.4,1,7.7,5.6c-0.5,3.1-0.8,4.9-5.6,5.7l0,0.2 c2.7,0.1,4.3,1.2,4,3.3l-0.6,3.8h-6.7l0.4-2.6c0.3-1.4-0.4-2.3-2.4-2.3h-5.2l-0.8,4.9h-6.7L177.5,51.6z M187.9,61 c2.9,0,2.9-0.8,3.2-2.9c0.3-1.7-0.2-2.1-2.4-2.1h-5.2l-0.8,5H187.9z"/>
			<path id="XMLID_50_" class="st1" d="M205.8,67.1l-1.7,3.2h-6.9l10.3-18.6h10.1l4.8,18.6h-6.8l-0.8-3.2H205.8z M212.1,55.4 L212.1,55.4l-4.3,8.1h6.2L212.1,55.4z"/>
			<path id="XMLID_53_" class="st1" d="M226.8,51.6h13.1c5,0,7.8,0.7,7.2,4.8c-0.4,2.4-1.2,3.9-4.6,4.3l0,0.2c3.7,0.2,4,1.8,3.7,4.2 c-0.7,4.6-3.7,5.2-8.9,5.2h-13.3L226.8,51.6z M231.2,66.2h5c2.2,0,3.1-0.4,3.3-1.9c0.2-1.5-0.5-1.8-2.7-1.8h-5.2L231.2,66.2z M232.3,59.1h4.8c2.3,0,2.9-0.3,3.2-1.8c0.2-1.1,0-1.5-1.9-1.6h-5.6L232.3,59.1z"/>
			<path id="XMLID_57_" class="st1" d="M255.8,66h10.4l-0.7,4.3h-17.1l2.8-18.6h6.7L255.8,66z"/>
			<path id="XMLID_59_" class="st1" d="M276.5,59.1h10.7l-0.5,3.5h-10.7l-0.6,3.6H287l-0.6,4.1h-18.2l2.8-18.6h18l-0.6,4.1H277 L276.5,59.1z"/>
		</g>
		<polygon id="XMLID_3_" class="st1" points="1.6,33.9 2.6,23.4 3.7,12.9 12.3,19.1 20.8,25.3 11.2,29.6 		"/>
	</g>
</svg>
